<svg width="19" height="18" viewBox="0 0 19 18" fill="none" xmlns="http://www.w3.org/2000/svg">
<path fill-rule="evenodd" clip-rule="evenodd" d="M18.1354 12.5817C17.9926 15.7402 16.234 17.4902 13.0829 17.6353C12.1559 17.6775 11.8592 17.6875 9.5 17.6875C7.14072 17.6875 6.84535 17.6775 5.91826 17.6353C2.76098 17.4902 1.00983 15.7378 0.864624 12.5817C0.822428 11.6559 0.8125 11.3592 0.8125 9C0.8125 6.64072 0.822428 6.34535 0.864624 5.41826C1.00983 2.26098 2.76223 0.50983 5.91826 0.365866C6.84535 0.322428 7.14072 0.3125 9.5 0.3125C11.8592 0.3125 12.1559 0.322428 13.0829 0.365866C16.2415 0.511071 17.9939 2.26719 18.1354 5.41826C18.1776 6.34535 18.1875 6.64072 18.1875 9C18.1875 11.3592 18.1776 11.6559 18.1354 12.5817ZM13.011 1.92837C12.0951 1.88618 11.8196 1.87874 9.5 1.87874C7.18043 1.87874 6.90616 1.88742 5.99024 1.92837C3.63346 2.03634 2.53634 3.15207 2.42837 5.49024C2.38742 6.40616 2.37749 6.68044 2.37749 9C2.37749 11.3195 2.38742 11.5938 2.42837 12.511C2.53634 14.843 3.62849 15.9649 5.99024 16.0729C6.90491 16.1138 7.18043 16.1238 9.5 16.1238C11.8208 16.1238 12.0951 16.1151 13.011 16.0729C15.3677 15.9661 16.4637 14.8467 16.5729 12.511C16.6138 11.5951 16.6225 11.3195 16.6225 9C16.6225 6.68044 16.6138 6.40616 16.5729 5.49024C16.4637 3.15331 15.3653 2.03634 13.011 1.92837ZM13.0945 4.36329C13.0945 4.93914 13.5611 5.40578 14.1369 5.40578C14.7128 5.40578 15.1795 4.93791 15.1795 4.36329C15.1795 3.78743 14.7128 3.32079 14.1369 3.32079C13.5611 3.32079 13.0945 3.78743 13.0945 4.36329ZM5.03781 9.00022C5.03781 11.465 7.03592 13.4618 9.49946 13.4618C11.963 13.4618 13.9611 11.4637 13.9611 9.00022C13.9611 6.53668 11.963 4.53981 9.49946 4.53981C7.03592 4.53981 5.03781 6.53668 5.03781 9.00022ZM12.3913 9.00019C12.3913 10.6 11.0944 11.8956 9.49591 11.8956C7.89741 11.8956 6.6005 10.6 6.6005 9.00019C6.6005 7.40045 7.89741 6.10477 9.49591 6.10477C11.0944 6.10477 12.3913 7.40045 12.3913 9.00019Z" fill="white"/>
</svg>
